<?xml version="1.0" encoding="UTF-8"?>
<svg id="Layer_1" xmlns="http://www.w3.org/2000/svg" version="1.1" viewBox="0 0 45 45">
  <!-- Generator: Adobe Illustrator 30.1.0, SVG Export Plug-In . SVG Version: 2.1.1 Build 136)  -->
  <defs>
    <style>
      .st0 {
        fill: #fff;
      }

      .st0, .st1, .st2, .st3 {
        stroke-linecap: round;
        stroke-linejoin: round;
        stroke-width: 1.5px;
      }

      .st0, .st2, .st3 {
        stroke: #000;
      }

      .st1 {
        stroke: #fff;
      }

      .st1, .st3 {
        fill: none;
      }
    </style>
  </defs>
  <path class="st2" d="M19.78,9.35"/>
  <path class="st2" d="M36.46,39.05c-.37-1.83-.94-3.54-1.64-5.26-.66-1.63-1.75-4.47-2.81-5.79-.78-.98-2.09-1.53-3.31-1.92l-.1-.04s-.05-.05-.05-.05l.06-.04c.79-.62,1.14-1.63.57-2.46-.6-.87-.64-.69-.45-1.62.09-.45.01-.89-.13-1.34,2.34-.93,4.36-2.57,5.14-5.02.23-.72.28-1.45.11-2.18-.2-.89-.9-1.57-1.81-1.65-1.2-.1-2.26.68-3.22,1.29l-.84.53c-.34.22-.66.41-1.04.59l-.31-1.15c-.28-1.04-.7-2.29-1.77-2.72-.87-.35-1.63.15-2.1.12s-.92-.15-1.38-.25l.68.15c-.64-.08-1.72-.43-2.59-.08-1.07.43-1.46,3.18-1.74,4.22l-.31,1.53.18-.89-.19.89-3.75-.27c-1.15-.09-2.55-.26-3.53.51-.58.46-.71,1.26-.41,1.93.89,1.96,4.45,2.92,6.42,3.19.02.87.44,1.18-.14,1.82-.4.45-.62,1.02-.5,1.65.09.49.42.98.92,1.27-.02.02-.04.03-.04.03l-.1.04c-1.22.39-2.53.95-3.31,1.92-1.06,1.32-2.14,4.16-2.81,5.79-.7,1.72-1.27,3.43-1.64,5.26h27.94Z"/>
  <path class="st3" d="M18.46,16.1"/>
  <path class="st3" d="M17.42,15.91s3.81.11,5.05-.16,4.62-1.73,4.62-1.73"/>
  <line class="st1" x1="16.29" y1="26.09" x2="28.73" y2="26.09"/>
  <path class="st0" d="M17.42,15.84c-4.03-5.35-5.07-7.67-5.38-9.35,0-.04-.54-2.34-.17-2.5.46-.2.89.75,1.52,1.73.98,1.52,2.88,5.21,4.04,10.12"/>
</svg>